<?xml version="1.0" encoding="utf-8"?>
<!-- Generator: Adobe Illustrator 19.0.0, SVG Export Plug-In . SVG Version: 6.00 Build 0)  -->
<svg version="1.1" id="Layer_1" xmlns="http://www.w3.org/2000/svg" xmlns:xlink="http://www.w3.org/1999/xlink" x="0px" y="0px"
	 viewBox="-346 333.5 498.2 175.4" style="enable-background:new -346 333.5 498.2 175.4;" xml:space="preserve">
<metadata><?xpacket begin="﻿" id="W5M0MpCehiHzreSzNTczkc9d"?>
<x:xmpmeta xmlns:x="adobe:ns:meta/" x:xmptk="Adobe XMP Core 5.6-c067 79.157747, 2015/03/30-23:40:42        ">
   <rdf:RDF xmlns:rdf="http://www.w3.org/1999/02/22-rdf-syntax-ns#">
      <rdf:Description rdf:about=""/>
   </rdf:RDF>
</x:xmpmeta>
                                                                                                    
                                                                                                    
                                                                                                    
                                                                                                    
                                                                                                    
                                                                                                    
                                                                                                    
                                                                                                    
                                                                                                    
                                                                                                    
                                                                                                    
                                                                                                    
                                                                                                    
                                                                                                    
                                                                                                    
                                                                                                    
                                                                                                    
                                                                                                    
                                                                                                    
                                                                                                    
                           
<?xpacket end="w"?></metadata>
<style type="text/css">
	.st0{fill:#FFFFFF;}
</style>
<g>
	<path class="st0" d="M-191.2,456.1c-4.4,2.9-10.9,7.3-19.8,13.3c0.4,0.4,0.8,0.6,1.2,0.6c0.8,0,2.3-0.7,4.5-2
		c-0.4,0.5-0.5,1-0.2,1.2c0.7-0.3,1.6-0.7,2.9-1.2c-1.4,1.1-2.9,2-4.5,2.9l-1.4,1.6c-2.2,1-5.4,2.7-9.6,5.1c-0.3,0.1-0.3,0.3,0,0.6
		c7.5-3.5,13.6-6.9,18.4-10c-1.1,1.2-2.7,2.9-4.9,4.9c-1.4,0.7-3.5,1.8-6.5,3.5c-2.2,1.9-5.4,4.5-9.6,7.8c-1.1,0.7-3.6,1.7-7.5,3.1
		c-0.5,0.8-3.5,2.4-9,4.9c-3.3,1.6-5.1,2.4-5.5,2.2c-0.3,0-0.7-0.1-1.3-0.4c-0.6-0.3-1.1-0.4-1.3-0.4c-1.9,0-4.8,0.4-8.6,1.1
		c-3.8,0.7-6.7,1.1-8.6,0.9c1.1,0,0-0.1-3.2-0.4c-3.2-0.3-5-0.4-5.4-0.4c0.3,0.3,1.3,0.9,3.1,1.8c-3.4-0.1-5.4-0.3-5.9-0.6
		c-2.3-1.1-6.3-3.9-11.8-8.4c-1.6-1.6-2.5-2.6-2.7-2.9l-4.3,0.4c-0.4,0.3-0.8,0.6-1.2,1l-1-0.8c-0.1,0.1-0.2,0.4-0.2,0.7
		c0,0.3-0.2,0.4-0.6,0.3h-1.4c-0.4-0.1-0.7-0.2-1-0.2c0.8,0,2.2-0.4,4.1-1.1c1.9-0.7,3.4-1.1,4.5-1.1c0.4,0.1,0.6,0,0.6-0.4
		c0-0.7-0.9-1.9-2.6-3.6c-1.7-1.7-2.9-2.6-3.6-2.8c-0.4,0-1.1,0.3-2,0.8c-1,0.5-1.6,0.8-2,0.8c-3.4-0.1-8.3,0.1-14.7,0.8
		c0,0.1,0.1,0.4,0.4,0.7c0.3,0.3,0.4,0.7,0.4,1.1c-1.2-1.5-2.4-2.2-3.7-2.2c-0.4,0-0.6,0.1-0.6,0.2c0,0.1,0.1,0.3,0.4,0.6
		c-0.7-0.4-2.3-1-4.9-1.8c-0.1,0.1-0.3,0.2-0.6,0.3c-0.3,0.1-0.5,0.2-0.6,0.3c2.6,2.2,4.7,3.3,6.3,3.5l4.7,0.2
		c0.1-0.1,0.2-0.3,0.2-0.4c0-0.1-0.2-0.2-0.6-0.2c1,0,2,0.3,3.3,1c-0.8,0-2,0.1-3.6,0.4c-1.6,0.3-2.8,0.4-3.6,0.4
		c-0.4,0-1.4-0.5-2.9-1.4c-1.5-1-2.4-1.4-2.7-1.4c-0.4,0-0.6,0.1-0.5,0.2c0.1,0.1-0.1,0.2-0.5,0.2c-2.3-0.1-6.5-2.7-12.4-7.5
		c-0.7-1.1-1.9-3.1-3.7-5.9c-3.5-5.6-5.6-11.8-6.3-18.8c-0.4-3.9-0.6-6.8-0.6-8.6c0-0.1,0.2-0.5,0.5-1c0.3-0.5,0.4-0.9,0.3-1.2
		c-0.1-5.3,1.7-11.8,5.6-19.5c3.9-7.7,8.1-12.5,12.8-14.6c0.8-0.1,1.8-0.4,2.9-0.8c3.4-2.3,5.3-3.3,5.7-3.1
		c-1.2,0.4-2.5,1.3-3.9,2.7c1.1,0.8,2.2,1.2,3.5,1.2c0.8,0,1.7-0.6,2.5-1.7c0.9-1.2,1.3-2.1,1.1-3c0.5,0,0.9,0.1,1,0.4
		c0.4,0,0.7-0.4,0.8-1.2c0,0.3,0.3,0.4,1,0.4c0.1,0,1.6-0.8,4.5-2.3c2.9-1.6,4.6-2.5,5.3-2.8c1.6-0.7,5.6-1.4,11.8-2.2
		c3.9-0.5,5.7-0.8,5.3-0.8c0.4,0,1,0.3,1.8,0.8c0.8,0.5,1.4,0.9,1.6,1c0.4,0,1-0.1,1.8-0.4c0.8-0.3,1.4-0.4,1.6-0.4
		c0.3,0,0.7,0.1,1.3,0.3c0.6,0.2,1.1,0.3,1.3,0.3c0.4,0,0.8-0.1,1.3-0.4c0.5-0.3,0.8-0.4,1.1-0.4c0.3,0,0.7,0.3,1.4,0.8
		c0.7,0.5,1.2,0.8,1.4,0.8c2.2,0.5,3.7,0.8,4.7,0.8c0.3,0,0.6-0.1,0.9-0.4c0.3-0.3,0.6-0.4,0.9-0.4c0.4,0,0.8,0.1,1.2,0.2l0.6,0.4
		c-0.7,0-1.2,0.2-1.4,0.6l-0.2,0.4c1.5,0.1,3.9,0.6,7.3,1.4l-0.2,4.5l-0.8,0.8c-0.4,0.4-0.6,0.8-0.6,1.2c0.1,0,0.4,0.2,0.8,0.6
		c-0.4-0.1-0.9-0.4-1.4-0.8c-0.7,0.7-1.8,1.8-3.3,3.3l0.2,1.4c0.4-0.1,1-0.5,1.8-1.2c-0.1,1.1,0.1,1.6,0.6,1.6c0.4,0.1,0.7,0.1,1,0
		h0.6c-0.3,0.4-0.9,2-1.8,4.7c0,0.4-1.1,2-3.3,4.9v1.8c1.2-2,3.4-4.9,6.5-8.6c-2.3,5.7-4.3,10.1-5.9,13.3c-0.1,0.1-0.1,0.3,0.2,0.6
		c0.3-0.1,0.6-0.4,1-0.8c1.9-4.5,5.4-11,10.4-19.6h0.8c-0.1,0.4-0.4,1.1-0.8,2l0.4,0.8l1.4-1.2c-0.8,1.4-1.8,3.4-3.1,6.1
		c0.1,0.3,0.3,0.4,0.6,0.4c0-0.8-0.1-1.2-0.4-1.2c-0.4,0-1.4,1.2-2.9,3.5l-6.3,11.6c0.1,0.3,0.1,0.7,0,1.2c-0.1,0.3-0.3,0.7-0.4,1.4
		l-0.8-0.8c-2.6,3-4.2,7.3-4.7,13.1l-1.2,12c-0.3,0.8-0.4,1.5-0.4,2c0,0.8,0.1,1.5,0.4,2c0.5-0.4,0.8-1.1,0.8-2
		c0.5-1.8,1.2-4.3,1.8-7.5c0.3-1.9,0.7-4.8,1.2-8.8c0.1-0.4,1.2-2.4,3.1-5.9c0.4-0.8,1.3-2.9,2.7-6.3c0.9-2.3,2.2-4.2,3.9-5.7
		l0.6,1.8c-2.3,3.5-4.9,11.5-7.8,23.9l0.8,0.8c1.1-6.4,3.5-12,7.3-16.7c-1.1,1.9-2.4,4.8-3.9,8.8c-1.5,5.6-2.2,10.1-2.2,13.5
		c-0.1,0.5,0.1,0.8,0.6,0.8c-0.7,0,1.8-1.1,7.5-3.3v1.8c0.3,0.1,0.6,0.2,1,0.2c1.4,0,5.2-1.7,11.4-5.1l-9.6,6.3
		c0.4,0.3,0.7,0.4,1,0.4c0.5,0,1.1-0.1,1.6-0.4c-0.3,0.3-0.7,0.8-1.4,1.6l-1.4-1.4l-6.9,5.3c0.5,0.1,1.4,0.5,2.7,1
		c-0.5,0-2.6,0.7-6.1,2c0,0.8-0.2,1.9-0.5,3.3c-0.3,1.4-0.5,2.4-0.5,3.3c-0.1,1.4,0.6,2.6,2.2,3.8c1.6,1.2,3.2,1.8,4.7,1.9
		c0.4,0,1-0.1,1.7-0.2c0.7-0.1,1.3-0.2,1.7-0.2l16.3-6.7c-0.3,0.3-1.7,1-4.3,2c-1.8,0.8-2.9,1.9-3.5,3.3c0.1,0,0.3,0.1,0.5,0.2
		c0.2,0.1,0.4,0.2,0.5,0.2l17.1-9c0.9,0.3,2.4,0.5,4.5,0.6c-0.7-0.1,0.6-0.7,3.9-1.6l0.6-0.2c1.4-0.3,3.6-1,6.7-2.2
		c6.3-3.9,9.7-6.1,10.2-6.3c0.4,0,0.6,0.1,0.5,0.2c-0.1,0.1,0,0.2,0.3,0.2c0.7,0.1,1.4-0.1,2-0.6c-1,0.8-1.6,1.8-2,3.1
		c-1.9,0.4-4.1,1.6-6.7,3.5c-0.1,0.1-0.1,0.3,0.2,0.6C-201.4,460.8-197.6,459-191.2,456.1z M-341.1,458.7c-1-3-1.4-4.6-1.4-4.9
		c0-1.2,0.5-1.8,1.6-1.6L-341.1,458.7z M-341.7,451.6h-0.6v-3.1h0.6V451.6z M-324.4,479.5c-1.5-0.7-3.8-2.2-6.9-4.7l0.2-0.6
		l-0.8,0.6l-2.9-3.1C-332.2,473.3-328.7,475.8-324.4,479.5z M-311.5,487.1c-0.5,1.8-1.8,2.6-3.7,2.4c-1.5,0-4-1.2-7.5-3.7
		c-2.6-1.8-4.5-3.1-5.7-4.1c2.9,1.6,7.2,3.9,13.1,6.7c0.1-0.1,0.3-0.2,0.5-0.3c0.2-0.1,0.4-0.2,0.5-0.3c-0.7-0.9-1.9-2-3.7-3.3
		c3.4,1.8,5.2,2.7,5.5,2.9C-312.1,487.5-311.8,487.3-311.5,487.1z M-271.7,402.8h-3.5l0.8,1c-0.1,0.1-0.5,0.2-1,0.2
		c-0.5-0.5-1-0.9-1.2-1c0.3,0.4,0.4,0.7,0.4,1c0,0.3-0.2,0.5-0.6,0.6c-2.4-0.5-3.5-0.8-3.1-0.8c-1.4,0-3,0.6-4.9,1.8
		c-6.5,4.2-10.7,7.8-12.4,10.6c0.4,0,0.9,0.3,1.6,1c1.1-1.8,3.3-3.5,6.5-5.3c3.3-1.8,6-2.6,8.2-2.4c0.5,0,0.9,0.1,1,0.2
		c-4.8,1.2-9.6,3.7-14.5,7.3c-0.7,0.3-1.5,0.5-2.4,0.8c-1.8,2.6-4.3,6.1-7.5,10.6c-0.1-1,1-3.5,3.5-7.5c-3.5,5.2-5.9,8.7-7.1,10.6
		c-2.3,3.8-3.5,6.8-3.5,9c-2,5.3-3.1,9.4-3.3,12.2c0,1.6,0.5,3.7,1.4,6.3c1.4,3.7,3.2,5.5,5.5,5.5c1.1,0.1,3.1-0.4,6.1-1.6
		c3-1.2,5-1.8,6.1-1.8c0.4,0,0.6,0.1,0.5,0.2c-0.1,0.1,0.1,0.3,0.5,0.4c0.4,0,1-0.2,1.6-0.7c0.7-0.5,1.2-0.7,1.4-0.7
		c0.5-1.1,0.9-3.2,1-6.3c1.1-16.9,4.7-30.3,10.8-40.4c-0.8,0-1.4,0.3-1.8,0.8v-1.6c0,0.3-0.3,0.7-0.8,1.2l0.2-2.9
		c1.2,0,2-0.1,2.4-0.4c0.4-0.8,0.9-2,1.4-3.5h1.6c0.1,0.3,0.2,0.6,0.2,1l-0.4,0.8L-271.7,402.8z M-305.4,485.6
		c-0.4,0.4-0.6,0.8-0.6,1c0,0.1,0.1,0.3,0.2,0.4c-2.6-0.1-4.6-0.4-6.1-0.8c0.1,0,0.3-0.2,0.5-0.5c0.2-0.3,0.4-0.5,0.5-0.5h1.8
		C-308.7,485.4-307.4,485.5-305.4,485.6z M-308.7,443l-0.4-0.4l-1.2,1.6l0.6,0.4L-308.7,443z M-301.5,485.2c-0.4,0-1.8-0.4-4.3-1.2
		c1,0.1,2.2,0.4,3.7,0.8C-301.9,485.1-301.7,485.2-301.5,485.2z M-296.4,481.4h-4.3v-0.6h4.3V481.4z M-291.5,489.1
		c-0.8,0.3-1.9,0.7-3.3,1.2c-0.3-0.1-0.7-0.5-1.4-1.2c0.1-1.6,1.7-2.4,4.7-2.2c-0.4,0-1.2,0.3-2.4,1l0.8,1
		C-292.2,488.9-291.7,489-291.5,489.1z M-294.2,481.4l-0.2,0.6l-1.4-0.6v-0.6L-294.2,481.4z M-290.1,442l-0.4,3.5h-0.8l0.4-3.5
		H-290.1z M-273.8,400.6l-0.2-0.6l-1,0.6l-0.2,0.6L-273.8,400.6z M-265.8,398.3c-1.5-0.4-2.8-0.6-3.9-0.6c-1.4-0.1-3.1,0.2-5.3,1
		c1.1,0.8,1.6,1.5,1.6,2c0.7,0,1.4,0.1,2,0.4c1.2,0.8,1.9,1.2,2,1.2c0.4-0.8,0.9-1.7,1.5-2.7C-267.2,398.8-266.5,398.3-265.8,398.3z
		 M-268.5,404.6c0.3,0,0.4,0.1,0.4,0.2c-0.1,0.3-0.4,0.7-0.8,1.2l-1.6-1c0.1,0.1,0.5,0.1,1-0.1C-269,404.7-268.6,404.6-268.5,404.6z
		 M-269.3,472.6v-1.6h-0.8v1.6H-269.3z M-269.1,469.9v-1.6h-0.8v1.6H-269.1z M-259.7,399.3c1.1,0.1,0.4,0-2-0.3
		c-2.4-0.3-3.8-0.5-4.1-0.5c-0.4,1.4-1.2,2.8-2.4,4.3c0.7,0,1.1,0.1,1.2,0.4c-0.5,0.5-0.8,0.9-0.8,1c0.1,0,0.3-0.1,0.6-0.2
		c0.3-0.1,0.5-0.2,0.8-0.2c0.4,0,0.6,0.2,0.6,0.5c0,0.3,0.1,0.5,0.2,0.5c-0.3,0.3-0.4,0.8-0.4,1.6c0.5-0.3,2.1-0.7,4.7-1.4
		c-0.3,0-0.5-0.1-0.6-0.4C-261.3,403.6-260.5,401.8-259.7,399.3z M-266.8,467.3l-0.6-1.2l-0.6,0.2l0.6,1H-266.8z M-261.7,380
		l-0.2,5.5c0,2.3-1,3.7-3.1,4.3c-1.2-1.4-1.8-3.5-1.8-6.5c0.1-3,1.2-4.4,3.1-4.3C-263.2,378.9-262.6,379.3-261.7,380z M-263.8,401.2
		l-1,1l-0.4-0.6l1.2-0.8L-263.8,401.2z M-260.5,448.7h-0.8l-1,6.1h0.6L-260.5,448.7z M-256.4,406.7c-0.7,0-1.4-0.3-2.2-1
		c0.1,0,0.4-0.1,0.8-0.3c0.4-0.2,0.7-0.3,1-0.3c0,0.4,0.1,0.7,0.2,1L-256.4,406.7z M-253.6,427.3l-3.5,5.1l-0.6-0.4l3.5-5.1
		L-253.6,427.3z M-255.6,442l-1.2,4.3l-0.8-0.2l1.4-4.1C-256.2,442-255.6,442-255.6,442z M-236.7,391.8c0,1-1.9,3.2-5.7,6.7
		c-1.8-0.5-4.2-1.6-7.1-3.1c-0.3-0.5-0.7-1.4-1.4-2.7c0.3-0.4,0.5-1.2,0.6-2.4c0.1-1.5-0.1-2.2-0.8-2.2c-0.3,0-0.6,0.1-0.9,0.2
		c-0.3,0.1-0.6,0.1-0.9,0c-1.4,0-2.7-1.4-4.1-4.1c1.9-2.2,3.9-3.2,5.9-3.1c0.3,0,0.9,0.4,2,1.1c1.1,0.8,1.8,1.1,2.2,1.1
		c0.5,0.1,1.3,0.1,2.2,0c1-0.1,1.7-0.2,2.2-0.2c1.1,0.1,2.3,1.3,3.7,3.5C-237.3,388.9-236.7,390.6-236.7,391.8z M-254.8,406.1h-1
		v-0.6h1V406.1z M-248.7,414.8l-2.4,3.3l-0.6-0.4l2.4-3.3L-248.7,414.8z M-249.1,412l-1.2,2l-0.6-0.2l1.2-2L-249.1,412z
		 M-246.9,411.6l-1.2,0.8l-0.4-0.4l1.2-1L-246.9,411.6z M-243.4,456.1c-0.3-0.3-0.5-0.6-0.6-1c-0.3,0.1-1,0.8-2,2
		c0.3,0.3,0.7,0.7,1.2,1.4C-244.8,458-244.3,457.1-243.4,456.1z M-240.5,456.9l-1.8,1.6l1.6,0.2C-240.7,457.6-240.7,457-240.5,456.9
		z M-197.7,428.3c0,0.3-0.1,0.6-0.2,1.1c-0.1,0.5-0.2,0.8-0.2,0.9h-2c-0.3-0.4-0.8-1.2-1.6-2.4c0,0.3-0.3,0.6-0.8,1
		c0.7-0.3,1-0.9,1-1.8c0-0.5-0.1-1.4-0.2-2.5c-0.1-1.2-0.2-2-0.2-2.6c0-0.7,0.1-1.3,0.2-1.8l2,0.2c0.3,1,0.5,2.9,0.8,5.7
		C-198.1,426.9-197.7,427.6-197.7,428.3z"/>
	<path class="st0" d="M-150,448.3c0,5-1.2,9.2-3.5,12.4c-0.8,1.2-1.9,3.1-3.3,5.7c-0.8,1.1-4.1,4-10,8.8c0.1-0.4,0.5-1,1-1.8
		c0-0.1,0.1-0.2,0.2-0.2h-1c1.1,0-0.3,0.6-4.3,1.8c0.9-0.5,2.3-1.5,4.1-2.9c0.1-0.3,0.1-0.5-0.2-0.8l-26.1,13.5
		c-0.1-0.5-0.4-0.8-0.8-0.8c-1.9,0-7.3,2-16.3,5.9c-0.4,0.1-1.2,0.8-2.4,2c0-1,0.1-1.4,0.4-1.4c-0.8,0.8-1.4,2-1.6,3.5
		c-0.3-0.1-0.8-0.5-1.6-1.2c-4.5,1.8-6.6,5-6.3,9.6c-0.3,0-0.6-0.2-1.1-0.5c-0.5-0.3-0.9-0.5-1.1-0.5c-0.3,0.4-1.1,2.2-2.4,5.5h-1
		c-0.1-1.4-0.1-3,0-4.9c-0.3-0.5-0.6-1-1-1.2c-0.3,0.3-0.4,0.7-0.4,1.4c0-0.7-0.2-1.2-0.6-1.4c-0.3,0.3-1,1.3-2.2,3.1
		c0.1-2.3,0.1-3.8,0-4.5c-0.4,0-0.7,0.2-0.8,0.6c-0.3,1.2-1,3-2,5.3c-0.1-0.1-0.3-1.2-0.6-3.3c-0.4-1.5-0.2-2.8,0.6-3.9
		c-1-1.1-1.9-1.6-2.9-1.6c-0.5,0-1.2,0.1-1.8,0.2c-0.7,0.1-1.2,0.2-1.6,0.2v-3.1c1.5-0.3,3.5-0.8,5.9-1.6c0.7-1.9,2.3-6.3,4.9-13.1
		c1.5-3.9,3.3-9,5.3-15.1v-0.6c-0.5,0.4-1,1.1-1.4,2c5.8-19.2,11.2-40.5,16.1-64.1c3.1-15.8,4.9-27.7,5.3-35.9c0-1.1,0-2.6,0-4.5
		c0-1.9-0.1-3.3-0.2-4.3c0-0.9,0-1.1,0-0.4V353c0.3,1,0.8,2.2,1.6,3.9c0.8-1.4,1.2-2.9,1.2-4.5c0-1.2-0.2-2.4-0.6-3.7
		c0.1-0.7,0.8-2.2,2-4.5c-0.4,4.2-0.6,7.1-0.6,8.8c0.4-0.8,1.2-2.3,2.4-4.5c0.7-0.8,1.8-1.9,3.3-3.3c0.3,0.3,0.7,1.1,1.4,2.4
		c0.3-0.1,0.5-0.6,0.6-1.4v1.4c1.2,0,2.1,0.1,2.7,0.4c0.3-0.3,0.5-0.7,0.7-1.3c0.2-0.6,0.4-1,0.5-1.1c-0.1,0.7-0.1,2,0,4.1
		c0.9-0.4,1.7-1.2,2.2-2.2l-1.2-1.4c0.8,0.5,2,1.4,3.7,2.4c0.7-1.4,1-2.8,1-4.3c0.1,0.8,0.4,2,0.8,3.5c0.1-0.8,0.5-1.6,1-2.4
		c0.3,1.5,0.9,3.7,1.8,6.7h0.2c0.1-2,0.6-4.6,1.4-7.8c0.7-1.4,1.7-2,3.1-2c0.8,0,1.7,1.2,2.7,3.7c-1.8,0-2.9,0.8-3.3,2.4
		c-0.4,1.2-0.4,2.7,0,4.5c0.7,4.4,1,8.6,1,12.9c0,6.9-1,13.5-3.1,19.8c0-0.5-0.3-1.2-0.8-1.8c-0.4,2-1.2,5.1-2.2,9.2
		c-0.3-0.3-0.5-0.4-0.8-0.4c-0.5,1.1-1.2,2.7-1.8,4.9c0.1,0.7,0.2,1.8,0.2,3.3c-0.5,0.7-1.3,1.8-2.2,3.5v-2c-0.1-0.1-0.3,0-0.4,0.4
		c-0.7,2.4-2.1,7.2-4.3,14.3c1.4-0.1,4.2-0.1,8.6,0c4.9,0.3,8.8,0.9,11.6,1.8c5.8,2.2,10.7,6.1,14.7,11.8
		C-151.9,436.1-150,442-150,448.3z M-207.5,349.6c-0.3,0.4-0.5,1.6-0.8,3.5c-0.4-0.8-1-2.2-1.6-4.1c0.5,0.5,0.9,0.8,1,0.8h1
		C-207.8,349.6-207.6,349.6-207.5,349.6z M-208.3,469.7h-0.6l-1,2.4l0.6,0.2L-208.3,469.7z M-206.5,464c-0.8,0.7-1.4,2.2-1.8,4.5
		c-0.3,0-0.5,0.1-0.6,0.2c0.1,0.3,0.3,0.6,0.6,1C-207.1,466.9-206.5,465-206.5,464z M-176.1,453.6c0-1.1-0.4-2.7-1.2-4.7l-1,3.3
		c0-1.8-0.6-4.1-1.8-6.9c0,1.4-0.1,2.2-0.4,2.7c0-0.7-0.8-1.8-2.4-3.3h1.6c-0.7-2.2-4.4-3.3-11-3.3c-2.6,0-4.1,0.5-4.7,1.6
		c0.9,0,2.4,0.3,4.3,1l-4.5,1c-1.4,4.2-3.4,10.2-6.1,18c0-0.3,0.1-0.4,0.2-0.4c0.1,0.3,0.2,0.7,0.2,1.2c0,0.7-0.3,1.8-0.9,3.3
		c-0.6,1.5-0.9,2.4-0.9,2.7c0.7-0.8,1.4-1.9,2-3.3c0.3,0.3,0.3,0.5,0.2,0.6c0-0.4-0.3-0.1-0.8,0.8c-0.7,1.2-1.3,2-1.8,2.4l-0.4,0.4
		c-0.1,1.5-0.4,2.7-0.8,3.7c0-0.7,0.4-1,1.2-1c0.3,1.1-0.3,2.6-1.8,4.5h1.6c-0.7,1-1.5,2.2-2.4,3.9c2-0.7,4.2-2,6.5-4.1
		c-1.5,1.1-2.6,1.5-3.3,1.2c0.8-0.7,1.6-1.3,2.4-1.8c-1.5,0.5-2.4,0.7-2.9,0.4c4.4-2.6,10.7-6.2,19-10.8l-4.3,1.2
		c2.6-1.9,5.2-3.7,7.8-5.5c3.1-2.3,4.9-4.6,5.3-6.9C-176.5,453.5-176.1,452.9-176.1,453.6z M-200.1,445.6c-0.4,0.1-0.9,0.4-1.4,0.8
		c-1.2,3.7-2.9,9.1-4.9,16.3l1,0.6L-200.1,445.6z M-205,476.5l-0.8,1l-0.6-0.4l1.2-1.2L-205,476.5z M-202.8,346.7h-0.6v-2h0.6V346.7
		z M-199.9,460.3l-1.2,2.2l-0.8-0.2l1.4-2.2L-199.9,460.3z M-198.7,442.2c-1.4,0.7-2,1.2-2,1.6h1.6
		C-199.1,443.1-199,442.6-198.7,442.2z M-199.5,444.8V444h-1.2v0.8H-199.5z M-197.3,346.3h-0.8l-0.4-1.8h0.6L-197.3,346.3z
		 M-195,447.1c-0.8,0-1.4,0.5-1.8,1.4c0.3-1.4,0.7-2.4,1.2-3.1C-195.7,446.1-195.4,446.7-195,447.1z M-192.8,334.3l-0.4,0.6l-1-1
		l0.4-0.4L-192.8,334.3z M-193.2,417.5v-1.2h-0.8v1.2H-193.2z M-192.8,416.1v-1.4h-0.8v1.4H-192.8z M-192.4,414.4v-2h-0.6v2H-192.4z
		 M-191.6,416.1l-0.6-0.2l-0.6,1.4l0.6,0.2L-191.6,416.1z M-186.9,408.9l-0.6,2.2h-0.6l0.4-2.2H-186.9z M-186.5,408.1h-0.8v-1.4h0.8
		V408.1z M-181.6,397.3h-0.6v-1.6h0.6V397.3z M-173.4,368.9h-1v-2.9h1V368.9z M-173.2,354.1h-0.6v-1.2h0.6V354.1z M-173.2,364.9
		h-0.6v-10.4h0.6V364.9z M-168.3,476l-2,1v-0.6l1.8-1L-168.3,476z M-156.9,446.9c0-2.4-1.1-5.4-3.3-9c0,0.7-0.1,1.2-0.4,1.4
		c-0.1-1.2-1.2-2.8-3.1-4.6c-1.9-1.8-3.5-3-4.7-3.4c7.6,6.1,11.1,12.9,10.6,20.4C-157.2,450-156.9,448.4-156.9,446.9z M-163.4,413.6
		l0.6,0.6h1.4c-0.5,0-0.3-0.3,0.6-0.8c1.2,0.4,1.5,1.2,0.8,2.2c-0.7,1.5-0.7,2.7-0.2,3.7c0.7,0.4,1.5,1.2,2.4,2.2l3.1,0.6
		c1.4,0,1.8-0.7,1.2-2c0.4-0.3,1-1.7,1.8-4.3c0.5,0.5,0.9,0.8,1,0.8c1.8,0,2.7-0.9,2.7-2.7c0-2.4-1.2-3.7-3.5-3.7
		c-0.1,0-0.3,0.1-0.5,0.3s-0.4,0.3-0.5,0.3c-0.1,0-0.5-0.2-1.2-0.7c-0.7-0.5-1.1-0.7-1.2-0.7c-0.7,0-1.8,0.5-3.5,1.4
		c-0.3,0.3-0.9,0.7-1.8,1.4c-0.1,0-0.2-0.1-0.2-0.2c0-1.4-0.5-2-1.6-2c-0.4,0-0.9,0.4-1.4,1.2V413.6z M-158.5,464.6l-0.4-0.4
		l-3.9,4.1l0.2,0.4L-158.5,464.6z M-160,416.5l0.6-0.2v0.2l-0.4,0.2L-160,416.5z"/>
	<path class="st0" d="M-53.5,426.5c0,2.4-1,6.1-3.1,10.8c-0.8,2.3-2,6-3.5,11c-1.6,1.8-3.9,4.8-6.9,9l1-2c0.8-1.5,1.1-2.4,0.8-2.7
		c-1.1,1.5-2.6,3.9-4.5,7.3c-0.8,0.7-2,2-3.7,3.9c-0.8,1.5-2,3.7-3.5,6.5c-3.5,5-7.5,9.1-11.8,12.2c-7.5,5.6-12.4,8.4-14.9,8.4
		c-0.4,0-1-0.1-1.8-0.4c-0.8-0.3-1.4-0.4-1.6-0.4c-1.1,0-2.6,0.2-4.6,0.7c-2,0.5-3.5,0.7-4.6,0.7c-4.1,0-8.4-2.2-13.1-6.5l-4.1-0.8
		c-0.1,0.4-0.2,1-0.2,1.6c0,0.7,0.1,1.5,0.2,2.4c-1.4-1.8-3.2-4.1-5.5-6.9c-0.1-0.7-0.5-1.9-1-3.7c-0.4-0.3-0.8-0.5-1.2-0.8
		c-0.3-1.8-0.7-4.5-1.2-8.2c0.7-0.8,1-1.4,1-1.8c-1.4-3.1-2.2-5.8-2.7-8c0.4-0.4,0.4-4.1,0-11c1.2-9.9,3.7-19.7,7.5-29.4
		c1.5-4.2,4.4-8.6,8.8-13.3c4.6-5.4,8.8-8.6,12.4-9.4c0.5,0,3.1-1.1,7.8-3.3c-9.4,3.8-16.9,9.7-22.4,17.7c-0.1,0.1,0,0.4,0.4,0.8
		l1-0.8c-1.8,1.9-3.2,4.2-4.3,6.9l0.8,0.4c4.2-5.8,11.1-12,20.6-18.6c-0.4,0-1.6,0.3-3.5,1c8.7-5.2,15.4-7.7,20.2-7.5
		c-0.1,0-0.4,0.2-0.8,0.6c0.4,0.3,0.9,0.4,1.4,0.4c0.7,0,1.7-0.1,3.1-0.4c1.4-0.3,2.4-0.4,3.1-0.4c0.4,0,1.3,0.5,2.8,1.4
		c1.4,1,2.3,1.4,2.6,1.4c0.5,0,0.8-0.1,0.7-0.3c-0.1-0.2,0-0.3,0.3-0.3c0.4,0.1,1,0.6,1.7,1.3c0.7,0.7,2.8,3,6,6.6
		c0.5,1.2,1.9,2.9,4.1,4.9l0.8-0.8c-1-0.4-1.3-1-1.1-1.6c0.2-0.7,0-1.2-0.5-1.6c2.2,0,3.8,0.5,4.9,1.4c0.8-1,1.2-1.6,1.2-1.8
		c0.5,1.5,1.6,3.1,3.3,4.7c0.9,1.1,2.4,4.6,4.3,10.4c0,0.5,0.1,1.4,0.2,2.7c0.3,0.5,0.9,1.1,1.8,1.6
		C-53.9,424-53.5,425.2-53.5,426.5z M-122.8,404.9l-2.7,2.9l-0.2-0.6l2.4-2.4L-122.8,404.9z M-119.6,402.8l-2.7,2l-0.2-0.8l2.4-1.8
		L-119.6,402.8z M-87.1,422.4c-1.4-2-2.2-3.6-2.4-4.7c-1.8,1.2-4.6,3.5-8.6,6.9c0.1-0.8,0.7-1.8,1.6-3.1
		c-6.3,7.8-10.8,16.4-13.7,25.9c-0.5-0.8-0.9-1.2-1-1.2c-1,0-1.9,1.6-2.8,4.9c-0.9,3.3-1.3,5.6-1.3,6.9c0,2.7,0.6,6.3,1.8,10.6
		c5.4-1.5,10.7-5.5,15.7-12c5-6.5,7.5-12.4,7.3-17.7c0.5,0.3,0.9-0.1,1.2-1.2l0.6-1.4c-1.1-0.4-2.2-0.9-3.5-1.4
		c0.1-0.7,0.2-1.2,0.2-1.6c0-1.4-2.2-2.6-6.5-3.7l5.1-0.2c0.7,0.3,1.6,0.9,2.9,1.8c0.1-0.4,0.3-0.9,0.6-1.4c-0.8,0-1.3-0.1-1.4-0.2
		c0.7-0.7,0.9-1.2,0.8-1.6c-0.5-0.4-1.3-0.9-2.2-1.6c2-0.7,3.4-1.6,4.1-2.7c-0.4-0.5-1-1.2-1.6-1.8c0.4,0,0.9,0.1,1.6,0.3
		C-87.9,422.3-87.4,422.4-87.1,422.4z M-105.3,392.6h-1.2v-0.8h1.2V392.6z M-96.5,392.8c-1.5,0.4-4.6,1.4-9.2,3.1h1.8
		C-103,396-100.6,395-96.5,392.8z M-102.6,391.6h-1.2v-0.8h1.2V391.6z M-93.7,435.5h-1v-0.8h1V435.5z M-57.3,402h-0.8v-1.8h0.8V402z
		"/>
	<path class="st0" d="M30.6,498.9c-0.4-0.1-1.2-0.2-2.2-0.1c-1.1,0.1-1.8,0.1-2.2,0.1c-0.3,0-1.1-1.1-2.3-3.3
		c-1.3-2.2-2-3.3-2.1-3.5c-1,0.5-1.5,1.1-1.6,1.6c-0.1,0.7,0.4,1.8,1.6,3.5c-0.3,0.9-0.3,1.9,0,2.9c-0.3,1.5-1.1,2.2-2.4,2.2
		c-0.4,0-0.7-0.1-0.9-0.2c-0.2-0.1-0.4-0.2-0.5-0.2c-0.3,0.3-0.5,0.6-0.6,1c0,0.3,0.1,0.5,0.2,0.6l-1-1c-1,0-1.5,0.4-1.6,1.2
		l-0.2,1.8c-0.4,0-1-0.1-1.6-0.4c-0.7-0.3-1.3-0.4-1.8-0.4c0.4,0.5,0.9,1.4,1.4,2.4l-0.2,1.6h-1.6c-0.7-1.8-1.8-4.4-3.3-8
		c-2.3,0.7-3.8,1.1-4.5,1.2c-1.9,0-2.8-3.5-2.7-10.4c0-1,0.1-4.5,0.2-10.6c-0.1,0.3-0.4,0.7-0.8,1.2c-1.4,0.5-3.1,1.4-5.3,2.4
		c-5.7,2-9.9,3.1-12.6,3.3l-5.3,0.2c-1.2,0-3.3-0.7-6.1-2c-0.5-0.3-1.2-0.7-2-1.2c-6.7-2.9-11.2-8.8-13.7-17.7
		c-1.9-7.5-2.2-15.6-0.8-24.5c0.1-0.8,0.3-2.1,0.5-3.9c0.2-1.8,0.4-3.2,0.5-4.3c0.3-1.6,2.9-9.3,8-23.1c1.9-5,4-8.4,6.3-10.2
		c0.1,1.1,0.4,2.5,0.8,4.3c0.1-0.1,1.2-1.5,3.3-4.1c1.6-2.3,2.9-3.5,3.9-3.5c0.5,0,1.2,0.1,1.8,0.4c0.1,0.3,0.3,0.6,0.4,1L-21,401
		c0.1,0.5,0.4,1.4,0.8,2.7c0.8,2,2.1,3,3.9,2.9c-1.1,0.1,0.3-0.5,4.3-1.8c0.1,0.5,0.1,1.5,0,2.9c-0.3,1.5-0.7,3.3-1.4,5.3
		c-0.1,0.4-0.1,0.9,0,1.4c-0.7,3.3-1.8,7.7-3.3,13.3c-0.4,1.4-0.5,2.6-0.4,3.7l0.2,0.6c-1.4,7.8-1.9,13.6-1.6,17.5
		c0.4,6.3,2.5,12.3,6.3,18.2l-0.2,0.4c0.8,0.1,1.8,0.5,2.9,1.2c0.1,0.3,0.3,0.4,0.6,0.4c0.5,0,3.4-1.6,8.6-4.7c0.4,0,0.7,0.2,1,0.6
		c-0.7,1.1-1.3,1.8-1.8,2c0.1,0.1,0.4,0.3,0.8,0.4c0,0.8,0.7,1.6,2.2,2.4c0.5-1.8,1.1-4.4,1.6-8c-0.3-0.7-0.4-1.1-0.4-1.2l0.8-1
		c1-9.2,4.4-22.1,10.2-38.6c1.8-4.9,4.6-11.8,8.4-20.6l1,1c-0.7,1.6-1.4,3.6-2.2,5.9l-0.6,3.1c-0.1,0.3,0.1,0.4,0.6,0.4
		c1.1,0,2.3-1.2,3.6-3.7c1.3-2.4,2-3.7,2.1-3.7c0.5,0,1,0.1,1.2,0.2l0.2,0.2l1.4-3.7c-0.1,1-0.1,2,0,3.3c0.8-0.4,1.6-1.8,2.4-4.1
		l2-0.8c1.4,1.4,2,2.1,1.8,2.2c0.5,0,0.8-0.1,0.7-0.2c-0.1-0.1,0-0.2,0.3-0.2c0.4,0,0.8,0.5,1.2,1.4c0.4,1,0.7,1.5,1,1.6
		c-0.1,0.4-0.7,1.3-1.6,2.7c-0.4,0.8-0.4,1.7,0,2.7c-0.1,0.1-0.1,0.3,0.2,0.6c0.8-0.3,2-1.1,3.5-2.4l-0.2,0.6c0.1,0.1,0.3,0.5,0.6,1
		c-0.4,1.1-0.7,2.3-1,3.7c-0.3,1.9-0.5,4.1-0.6,6.5l0.4,0.2c0.1-0.5,0.5-1,1-1.4c-0.3,1-2.5,9.7-6.7,26.1
		c-1.9,7.8-3.1,14.6-3.5,20.6c-0.1,1.5-0.7,4.6-1.6,9.4c-0.1,0.4,0,0.9,0.4,1.4l-0.2,1.4c-0.3,0.1-0.6,0.2-1,0.2s-0.7-0.1-1-0.4
		l-1.4,0.2C24.2,489.6,25.5,496.9,30.6,498.9z M-8.4,415l-2,5.7c-1.5,4.8-2.4,7.7-2.7,8.8c-0.1,1-0.3,2.4-0.4,4.3
		c-0.5,2.2-1.4,3.7-2.4,4.7c-0.7-4.1-0.8-7.4-0.4-10c0.3-1.2,0.8-3.1,1.6-5.7c0.8-2.6,1.3-4.4,1.4-5.3c0.5-1.6,1.5-3.9,2.9-6.7
		c0.1,0.3,0.4,0.6,0.8,1c0.5-0.5,1.2-0.8,1.8-0.8L-8.4,415z"/>
	<path class="st0" d="M50.8,465.4c-0.3,1.5-0.9,2.2-1.8,2c-0.3,0-1.3-0.9-3.1-2.9c0.1-0.8-0.4-1.8-1.6-2.9c-0.1-0.8-0.2-1.3-0.2-1.4
		c0.4,0,0.8,0.3,1.2,0.8l1.6-1.2c0.7-0.5,1.2-0.8,1.4-0.8C49.8,459.4,50.6,461.5,50.8,465.4z M48.1,363.8c0,0.3-0.1,0.6-0.3,1
		c-0.2,0.4-0.3,0.7-0.3,0.8c-0.7-0.1-1.4-0.1-2,0c-0.5-0.5-0.7-0.9-0.6-1c0-0.3,0.2-0.8,0.6-1.5c0.4-0.7,0.6-1.3,0.6-1.5
		c0.5,0,1.4,0.1,2.4,0.4L48.1,363.8z M152,398.3l-3.9,1.8c-0.1,0.5,0.3,1.2,1.4,1.8c0,0.3-0.3,0.7-0.8,1.2c-2.4,0.3-6,0.5-10.6,0.6
		c-0.8,0-1.6,0.3-2.2,0.8c1.1,0.3,2.2,0.5,3.5,0.8c1.2,0.1,2.4,0.2,3.7,0.2c-1.5,0.3-3.7,0.6-6.7,1c-1.4,0.5-3.3,1.1-5.9,1.6
		c0.1,0.3,0.3,0.3,0.6,0.2c2.3-0.3,3.6-0.4,3.9-0.4c0.9,0,4.2-0.1,9.8-0.4l0.8,0.4l-1.4,1l-25.7,2.9c-9.4,1-17.9,1.6-25.5,1.8
		l-0.4,0.4c-0.1,0.1-1.6,4.1-4.3,12c-1.8,5.2-3,9.7-3.7,13.7c-2,13.3-1.2,24,2.7,32c7.1-4.2,10.4-6.3,10-6.3c0.5,0,1.4,0.7,2.7,2.1
		c1.2,1.4,2.1,2.2,2.7,2.3c0.3,0,0.4-0.1,0.4-0.2c0-0.1,0.1-0.1,0.4,0c0.3,0.1,0.7,0.5,1.2,1.2c0.8-0.7,5.2-3,13.1-6.9
		c-7.9,8.7-17.1,15-27.7,19c-0.5,0.3-0.8,0.5-0.8,0.8l0.4,0.6c2.7-0.1,9.5-3.4,20.4-9.8l-10.6,8c-6.8,4.9-11.3,7.1-13.5,6.7
		c-0.4,0-1.5-0.8-3.4-2.4c-1.8-1.6-2.8-2.7-3-3.1c-1.4,0.4-2.1,1.2-2.2,2.2l-2.4-0.4c-1.4-0.3-4.5-4.1-9.4-11.6
		c-1.9-3-2.9-8.9-2.9-17.7c0.1-6.4,0.7-12.6,1.6-18.8c0.3-1.8,2-9.2,5.3-22.4c-3.4,0.5-5.9,0.7-7.5,0.4c-1-0.1-2.5-0.7-4.7-1.6
		c-2.2-1-3.9-1.5-5.1-1.6l-5.5-0.8c-1,0-1.2,0-0.8,0c0-0.4,0.2-0.9,0.6-1.4c1.2-0.4,2.3-0.5,3.3-0.4c0.5,0.1,1.4,0.3,2.7,0.6
		c1.2,0.3,2.1,0.5,2.7,0.6l0.6-0.4c-0.3-0.4-1.2-1-2.7-1.8c0.7,0,1.8-0.1,3.5-0.2c-3.9-3.9-6.3-6-6.9-6.1c-0.4,0-1.7,0.1-3.9,0.4
		c0.1-0.4,0.5-0.5,1-0.4c0.1-0.1,0-0.4-0.4-0.8c1.1-1.1,2.2-2.2,3.3-3.3c2.9,0,4.4-0.5,4.5-1.4c0.3-1.2,0.1-1.8-0.6-1.8
		c-1.1-0.1-2-0.6-2.7-1.4c1.2-0.1,3.1-0.5,5.5-1l-0.6-0.8c0.8-0.4,2.1-1.1,3.9-2c0.3-0.4,0.2-0.6-0.2-0.6c0.8,0.1,1.3,0.4,1.4,0.8
		c1-0.3,1.6-1.1,1.8-2.4c0.9-0.4,2.3-0.7,4.1-1c2.6-0.3,6.5-0.7,11.6-1.4c0.5-1.1,2.2-5.8,4.9-14.3l0.4-2.9c0.1-0.5,0.7-1.9,1.8-4.1
		l0.2-2c0.4-1.1,1.2-2.8,2.2-5.1c0.1-0.5,0.4-1.4,0.8-2.4c1.1-1.2,1.8-2.4,2.2-3.5c1.6,1.1,3.5,2.4,5.5,3.9c0.8-0.7,2-1.6,3.5-2.9
		c0,0.5,0.5,2.1,1.6,4.7c0.5-1.2,1.4-3.3,2.7-6.1l1,0.4c0,1.1,0.5,2.8,1.4,5.1c0.3,1.9,0.4,3.9,0.4,6.1c0,3.4,0.1,5,0.4,4.7
		l-0.4,1.8h-0.6c-0.8,3.4-2.2,8.5-4.1,15.3c0.1,0.3,0.3,0.6,0.6,1c0.3,0,0.6-0.2,1-0.6c-0.1,0.5,0.1,0.9,0.6,1c1,0.1,2.5,0,4.7-0.4
		c1.9,0.1,5,0.2,9.2,0.2c5.3,0,8.4-0.1,9.2-0.2c-0.8,1.5-1.8,2.2-3.1,2l-3.1-0.4l-0.6,0.2c0.4,0.5,1,0.9,1.8,1
		c0.5,0,1.4-0.1,2.7-0.4c1.2-0.3,2.1-0.3,2.7-0.2c0.3,0,0.3,0.1,0.2,0.4c-0.1,0.3,0,0.4,0.4,0.4c-1-0.1,1.7-0.5,8-1.2
		c0.9,0,4.1,0,9.6,0c-0.4,0-1.3,0.3-2.8,0.9s-2.3,0.9-2.8,0.7c-3-0.4-5.6-0.2-8,0.6c0.4,0.5,0.8,0.8,1.2,0.8c6.4,1.1,9,1.4,7.8,0.8
		c0.4,0.5,1.5,2,3.3,4.3c0,0.4,0.1,0.8,0.2,1.2c1.1,0.5,1.4,0.8,1,0.6c1,0.1,2.9,0.1,5.7,0l0.4,0.4L152,398.3z M48.7,408.3l-2.9-0.4
		c0.4-0.1,0.8-0.3,1.2-0.6C47.6,408,48.2,408.3,48.7,408.3z M86.5,350.4c-0.8,0.5-1.3,0.8-1.4,0.8l-2.4-0.4
		c-0.1-0.1-0.3-0.4-0.5-0.8s-0.4-0.7-0.5-0.8c-0.8,0.1-1.5,0.6-2,1.5c-0.5,0.9-0.7,1.6-0.4,2.1c1,3.1,0.7,5.3-0.6,6.5
		c-1.2,0.8-3,2-5.3,3.5c-4.2,0.3-6.2,0.5-5.9,0.6c-0.8-0.1-1.4-0.6-1.8-1.5c-0.4-0.9-0.4-1.7,0-2.5c-0.4-0.5-1-1.4-1.6-2.7
		c-0.1-1.4-0.3-3.3-0.6-5.7c-1,0.8-1.7,1.2-2.2,1c-3.4-0.5-4.8-2.3-4.3-5.3c0.3-1.5,1.2-2.9,2.9-4.3c1.6-1.4,3.2-1.9,4.7-1.6
		c0.3,0,0.6,0.1,1,0.4c0.4,0.3,0.7,0.5,1,0.6c0.3,0,1.2-0.3,2.7-0.9c1.5-0.6,2.4-0.8,2.7-0.7c1.1,0.1,3.1,1.3,5.9,3.5
		c0.5,0.8,1.6,2,3.1,3.7c0.4-0.8,1.1-1.8,2-2.9c0.8-0.7,1.5-1,2-0.8c1,0.1,1.8,1,2.4,2.7L86.5,350.4z M67.3,368.9l-3.7-1.4l0.2-0.4
		l3.5,1.2V368.9z M70.4,378.1c-0.3,1.4-1,1.9-2.2,1.6c-2.2-0.3-3.6-1.4-4.3-3.3c0.7-1.5,1.5-2.2,2.4-2
		C69.3,374.9,70.6,376.1,70.4,378.1z M78.7,354.7l-0.4-0.6l-0.4,0.2l0.4,0.6L78.7,354.7z M85.5,359l-7.5,22.2l6.1-24.5
		C84.3,356.8,84.8,357.6,85.5,359z M89.7,453.6c-0.7,0-1.2-0.3-1.4-1c-0.4-1.5-0.5-3.1-0.2-4.7c-0.1,1.1,1.1-3.7,3.7-14.3
		c-0.4,1.9-0.7,5.1-0.9,9.7C90.7,447.9,90.3,451.3,89.7,453.6z M105.2,379.6l-0.8,3.3h-0.8l1-3.5L105.2,379.6z M107.5,354.7h-0.6
		l0.2-0.8h0.6L107.5,354.7z M119.9,355.5c-0.1,1.4-1.2,2.5-3.3,3.5c-0.4-0.5-0.6-1-0.6-1.2c0.1-0.5,0.6-1.3,1.5-2.2
		c0.9-0.9,1.6-1.5,2.1-1.6C120,354.3,120.1,354.8,119.9,355.5z M145.4,355.7c-1.2,0.8-2.2,1.2-2.9,1l-0.4-0.4l0.2-1.2
		c0.3-0.3,1.2-0.7,2.9-1.4l0.6,0.4L145.4,355.7z"/>
</g>
</svg>
